<?xml version="1.0" encoding="UTF-8" standalone="no"?><!-- Generator: Gravit.io -->
<svg xmlns="http://www.w3.org/2000/svg" xmlns:xlink="http://www.w3.org/1999/xlink" style="isolation:isolate"
     viewBox="0 0 40 40" width="40pt" height="40pt">
    <defs>
        <clipPath id="_clipPath_aZ8bXydH9LkjaQRm2cIeiMi2M92xZNeO">
            <rect width="40" height="40"/>
        </clipPath>
    </defs>
    <g clip-path="url(#_clipPath_aZ8bXydH9LkjaQRm2cIeiMi2M92xZNeO)">
        <linearGradient id="_lgradient_1" x1="0.9076503759398493" y1="-0.057171052631578484" x2="-0.02217418546365879"
                        y2="1.346337719298245" gradientTransform="matrix(30,0,0,30,5,5)" gradientUnits="userSpaceOnUse">
            <stop offset="3.3333333333333335%" stop-opacity="1" style="stop-color:rgb(252,165,165)"/>
            <stop offset="97.91666666666666%" stop-opacity="1" style="stop-color:rgb(248,113,113)"/>
        </linearGradient>
        <mask id="_mask_aqeotIZBqjdTs2FYdftIY0KsOhYJrDQo">
            <circle vector-effect="non-scaling-stroke" cx="20.000000000000007" cy="19.999999999999993"
                    r="15.000000000000007" fill="white" stroke="none"/>
        </mask>
        <circle vector-effect="non-scaling-stroke" cx="20.000000000000007" cy="19.999999999999993"
                r="15.000000000000007" fill="url(#_lgradient_1)"/>
        <circle vector-effect="non-scaling-stroke" cx="20.000000000000007" cy="19.999999999999993"
                r="15.000000000000007" fill="url(#_lgradient_1)" mask="url(#_mask_aqeotIZBqjdTs2FYdftIY0KsOhYJrDQo)"
                stroke-width="2" stroke="rgb(248,113,113)" stroke-linejoin="miter" stroke-linecap="square"
                stroke-miterlimit="3"/>
        <g>
            <g>
                <path
                    d=" M 14.711 21.745 C 14.578 21.612 14.362 21.612 14.228 21.745 C 13.216 22.757 13.195 23.87 14.16 24.887 L 12.003 27.043 L 11.649 26.691 C 11.383 26.425 10.95 26.424 10.684 26.689 L 9.889 27.485 C 9.623 27.75 9.623 28.184 9.889 28.45 L 12.786 31.347 C 12.919 31.481 13.095 31.547 13.269 31.547 C 13.444 31.547 13.619 31.481 13.752 31.347 L 14.547 30.553 C 14.687 30.414 14.754 30.219 14.732 30.019 C 14.712 29.835 14.622 29.659 14.471 29.508 L 14.194 29.232 L 16.348 27.079 C 17.379 28.06 18.464 28.036 19.492 27.009 C 19.625 26.875 19.625 26.659 19.492 26.526 L 14.711 21.745 Z  M 16.758 26.524 L 16.586 26.354 C 16.453 26.223 16.238 26.224 16.105 26.356 L 13.711 28.751 L 13.172 28.215 C 13.039 28.082 12.823 28.082 12.689 28.216 C 12.556 28.349 12.557 28.566 12.69 28.699 L 13.988 29.991 C 14.039 30.041 14.052 30.081 14.063 30.072 L 13.269 30.865 L 10.372 27.967 L 11.167 27.175 L 11.764 27.768 C 11.897 27.9 12.113 27.899 12.246 27.767 L 14.64 25.372 L 15.253 25.987 C 15.386 26.12 15.602 26.12 15.735 25.987 C 15.869 25.854 15.869 25.638 15.736 25.504 L 14.711 24.477 C 14.327 24.093 14.132 23.716 14.131 23.356 C 14.13 23.074 14.248 22.781 14.483 22.483 L 18.755 26.754 C 18.077 27.294 17.451 27.218 16.758 26.524 Z "
                    fill="rgb(57,57,57)"/>
                <path
                    d=" M 21.199 18.131 L 26.933 12.396 L 28.765 11.989 L 21.911 18.843 C 21.778 18.976 21.778 19.192 21.911 19.326 C 21.978 19.392 22.065 19.426 22.153 19.426 C 22.24 19.426 22.327 19.392 22.394 19.326 L 29.247 12.472 L 28.841 14.303 L 23.106 20.038 C 22.973 20.171 22.973 20.387 23.106 20.521 C 23.173 20.587 23.26 20.621 23.348 20.621 C 23.435 20.621 23.522 20.587 23.589 20.521 L 29.394 14.716 C 29.44 14.67 29.472 14.612 29.486 14.549 L 30.169 11.476 C 30.173 11.455 30.174 11.434 30.174 11.413 C 30.175 11.408 30.176 11.402 30.176 11.397 C 30.176 11.358 30.168 11.321 30.154 11.285 C 30.151 11.276 30.148 11.269 30.144 11.261 C 30.127 11.224 30.106 11.189 30.077 11.16 C 30.047 11.131 30.013 11.11 29.976 11.093 C 29.968 11.089 29.96 11.086 29.952 11.082 C 29.916 11.07 29.878 11.061 29.84 11.061 C 29.834 11.061 29.829 11.062 29.823 11.062 C 29.802 11.063 29.782 11.064 29.761 11.068 L 26.688 11.751 C 26.625 11.765 26.567 11.797 26.521 11.843 L 20.716 17.648 C 20.582 17.781 20.582 17.997 20.716 18.131 C 20.849 18.264 21.065 18.264 21.199 18.131 Z "
                    fill="rgb(57,57,57)"/>
                <path
                    d=" M 29.977 27.485 L 29.182 26.69 C 28.942 26.449 28.505 26.398 28.137 26.766 L 27.862 27.042 L 25.708 24.888 C 26.689 23.858 26.666 22.773 25.638 21.745 C 25.504 21.612 25.288 21.612 25.155 21.745 L 20.375 26.526 C 20.241 26.659 20.241 26.875 20.375 27.008 C 21.387 28.021 22.5 28.041 23.516 27.077 L 25.673 29.233 L 25.32 29.588 C 25.054 29.855 25.053 30.287 25.319 30.553 L 26.114 31.347 C 26.247 31.481 26.422 31.547 26.597 31.547 C 26.771 31.547 26.947 31.481 27.08 31.347 L 29.977 28.451 C 30.243 28.184 30.243 27.751 29.977 27.485 Z  M 26.597 30.865 L 25.804 30.07 L 26.397 29.473 C 26.529 29.339 26.529 29.124 26.396 28.991 L 24.001 26.597 L 24.616 25.984 C 24.75 25.851 24.75 25.635 24.616 25.501 C 24.483 25.368 24.267 25.367 24.134 25.501 L 23.106 26.526 C 22.722 26.909 22.345 27.105 21.985 27.106 L 21.982 27.106 C 21.701 27.106 21.409 26.988 21.112 26.753 L 25.384 22.482 C 25.923 23.16 25.846 23.785 25.153 24.479 L 24.983 24.651 C 24.852 24.785 24.853 24.999 24.986 25.132 L 27.38 27.526 L 26.844 28.064 C 26.711 28.198 26.712 28.414 26.845 28.547 C 26.979 28.681 27.195 28.68 27.328 28.546 L 28.62 27.248 C 28.671 27.198 28.709 27.185 28.701 27.174 L 29.494 27.968 L 26.597 30.865 Z "
                    fill="rgb(57,57,57)"/>
                <path
                    d=" M 20.957 25.06 C 21.045 25.06 21.132 25.026 21.199 24.96 C 21.332 24.826 21.332 24.61 21.199 24.477 L 11.025 14.303 L 10.619 12.472 L 21.911 23.765 C 21.978 23.831 22.065 23.865 22.153 23.865 C 22.24 23.865 22.327 23.831 22.394 23.765 C 22.527 23.631 22.527 23.415 22.394 23.282 L 11.101 11.989 L 12.933 12.396 L 23.106 22.57 C 23.24 22.703 23.456 22.703 23.589 22.57 C 23.723 22.436 23.723 22.22 23.589 22.087 L 13.345 11.843 C 13.299 11.797 13.241 11.765 13.178 11.751 L 10.105 11.068 C 10.084 11.064 10.064 11.063 10.043 11.062 C 10.037 11.062 10.032 11.061 10.026 11.061 C 9.987 11.061 9.95 11.07 9.914 11.082 C 9.906 11.086 9.898 11.089 9.89 11.093 C 9.853 11.109 9.819 11.131 9.789 11.16 C 9.76 11.189 9.739 11.224 9.722 11.261 C 9.719 11.269 9.715 11.276 9.712 11.285 C 9.698 11.321 9.691 11.358 9.69 11.397 C 9.69 11.402 9.691 11.408 9.692 11.413 C 9.692 11.434 9.693 11.455 9.697 11.475 L 10.38 14.549 C 10.394 14.612 10.426 14.67 10.472 14.716 L 17.06 21.304 L 16.277 22.087 C 16.144 22.22 16.144 22.436 16.277 22.57 C 16.344 22.636 16.431 22.67 16.518 22.67 C 16.606 22.67 16.693 22.636 16.76 22.57 L 17.543 21.787 L 18.255 22.499 L 17.472 23.282 C 17.339 23.415 17.339 23.631 17.472 23.765 C 17.539 23.831 17.626 23.865 17.714 23.865 C 17.801 23.865 17.888 23.831 17.955 23.765 L 18.738 22.982 L 19.45 23.694 L 18.667 24.477 C 18.534 24.61 18.534 24.826 18.667 24.96 C 18.734 25.026 18.821 25.06 18.909 25.06 C 18.996 25.06 19.084 25.026 19.15 24.96 L 19.933 24.177 L 20.716 24.96 C 20.783 25.026 20.87 25.06 20.957 25.06 Z "
                    fill="rgb(57,57,57)"/>
            </g>
        </g>
    </g>
</svg>
