<?xml version="1.0" encoding="UTF-8" standalone="no"?><!-- Generator: Gravit.io -->
<svg xmlns="http://www.w3.org/2000/svg" xmlns:xlink="http://www.w3.org/1999/xlink" style="isolation:isolate"
     viewBox="0 0 40 40" width="40pt" height="40pt">
    <defs>
        <clipPath id="_clipPath_8xLGCaURULdntQxTafSUKoT59nROlWbr">
            <rect width="40" height="40"/>
        </clipPath>
    </defs>
    <g clip-path="url(#_clipPath_8xLGCaURULdntQxTafSUKoT59nROlWbr)">
        <linearGradient id="_lgradient_12" x1="0.888240777080063" y1="0.030265354437858827" x2="-0.3789295525902666"
                        y2="1.464863264729199" gradientTransform="matrix(28,0,0,30.696,6,4.304)"
                        gradientUnits="userSpaceOnUse">
            <stop offset="1.25%" stop-opacity="1" style="stop-color:rgb(201,182,109)"/>
            <stop offset="98.75%" stop-opacity="1" style="stop-color:rgb(125,113,68)"/>
        </linearGradient>
        <mask id="_mask_PY7APf368tCmRpytQYC9IEVBaWQd8Old">
            <path
                d=" M 22.516 30.031 L 22.516 14.969 C 22.947 14.858 23.267 14.466 23.267 14 L 23.267 14 C 23.267 13.448 22.819 13 22.267 13 L 17.733 13 C 17.181 13 16.733 13.448 16.733 14 L 16.733 14 C 16.733 14.466 17.053 14.858 17.484 14.969 L 17.484 30.031 C 17.053 30.142 16.733 30.534 16.733 31 L 16.733 31 C 16.733 31.552 17.181 32 17.733 32 L 22.267 32 C 22.819 32 23.267 31.552 23.267 31 L 23.267 31 C 23.267 30.534 22.947 30.142 22.516 30.031 Z  M 31.782 30.031 L 31.782 14.969 C 32.214 14.858 32.533 14.466 32.533 14 L 32.533 14 C 32.533 13.448 32.085 13 31.533 13 L 27 13 C 26.448 13 26 13.448 26 14 L 26 14 C 26 14.466 26.319 14.858 26.751 14.969 L 26.751 30.031 C 26.319 30.142 26 30.534 26 31 L 26 31 C 26 31.552 26.448 32 27 32 L 31.533 32 C 32.085 32 32.533 31.552 32.533 31 L 32.533 31 C 32.533 30.534 32.214 30.142 31.782 30.031 Z  M 13.249 30.031 L 13.249 14.969 C 13.681 14.858 14 14.466 14 14 L 14 14 C 14 13.448 13.552 13 13 13 L 8.467 13 C 7.915 13 7.467 13.448 7.467 14 L 7.467 14 C 7.467 14.466 7.786 14.858 8.218 14.969 L 8.218 30.031 C 7.786 30.142 7.467 30.534 7.467 31 L 7.467 31 C 7.467 31.552 7.915 32 8.467 32 L 13 32 C 13.552 32 14 31.552 14 31 L 14 31 C 14 30.534 13.681 30.142 13.249 30.031 Z  M 6.578 33 L 33.422 33 C 33.741 33 34 33.259 34 33.578 L 34 34.422 C 34 34.741 33.741 35 33.422 35 L 6.578 35 C 6.259 35 6 34.741 6 34.422 L 6 33.578 C 6 33.259 6.259 33 6.578 33 Z  M 32.01 11.961 L 20 11.979 L 7.99 11.998 C 7.444 11.999 7.377 11.766 7.841 11.478 L 13.45 8 L 19.058 4.522 C 19.523 4.234 20.279 4.23 20.746 4.514 L 26.45 7.979 L 32.154 11.445 C 32.621 11.729 32.556 11.96 32.01 11.961 Z "
                fill-rule="evenodd" fill="white" stroke="none"/>
        </mask>
        <path
            d=" M 22.516 30.031 L 22.516 14.969 C 22.947 14.858 23.267 14.466 23.267 14 L 23.267 14 C 23.267 13.448 22.819 13 22.267 13 L 17.733 13 C 17.181 13 16.733 13.448 16.733 14 L 16.733 14 C 16.733 14.466 17.053 14.858 17.484 14.969 L 17.484 30.031 C 17.053 30.142 16.733 30.534 16.733 31 L 16.733 31 C 16.733 31.552 17.181 32 17.733 32 L 22.267 32 C 22.819 32 23.267 31.552 23.267 31 L 23.267 31 C 23.267 30.534 22.947 30.142 22.516 30.031 Z  M 31.782 30.031 L 31.782 14.969 C 32.214 14.858 32.533 14.466 32.533 14 L 32.533 14 C 32.533 13.448 32.085 13 31.533 13 L 27 13 C 26.448 13 26 13.448 26 14 L 26 14 C 26 14.466 26.319 14.858 26.751 14.969 L 26.751 30.031 C 26.319 30.142 26 30.534 26 31 L 26 31 C 26 31.552 26.448 32 27 32 L 31.533 32 C 32.085 32 32.533 31.552 32.533 31 L 32.533 31 C 32.533 30.534 32.214 30.142 31.782 30.031 Z  M 13.249 30.031 L 13.249 14.969 C 13.681 14.858 14 14.466 14 14 L 14 14 C 14 13.448 13.552 13 13 13 L 8.467 13 C 7.915 13 7.467 13.448 7.467 14 L 7.467 14 C 7.467 14.466 7.786 14.858 8.218 14.969 L 8.218 30.031 C 7.786 30.142 7.467 30.534 7.467 31 L 7.467 31 C 7.467 31.552 7.915 32 8.467 32 L 13 32 C 13.552 32 14 31.552 14 31 L 14 31 C 14 30.534 13.681 30.142 13.249 30.031 Z  M 6.578 33 L 33.422 33 C 33.741 33 34 33.259 34 33.578 L 34 34.422 C 34 34.741 33.741 35 33.422 35 L 6.578 35 C 6.259 35 6 34.741 6 34.422 L 6 33.578 C 6 33.259 6.259 33 6.578 33 Z  M 32.01 11.961 L 20 11.979 L 7.99 11.998 C 7.444 11.999 7.377 11.766 7.841 11.478 L 13.45 8 L 19.058 4.522 C 19.523 4.234 20.279 4.23 20.746 4.514 L 26.45 7.979 L 32.154 11.445 C 32.621 11.729 32.556 11.96 32.01 11.961 Z "
            fill-rule="evenodd" fill="url(#_lgradient_12)"/>
        <path
            d=" M 22.516 30.031 L 22.516 14.969 C 22.947 14.858 23.267 14.466 23.267 14 L 23.267 14 C 23.267 13.448 22.819 13 22.267 13 L 17.733 13 C 17.181 13 16.733 13.448 16.733 14 L 16.733 14 C 16.733 14.466 17.053 14.858 17.484 14.969 L 17.484 30.031 C 17.053 30.142 16.733 30.534 16.733 31 L 16.733 31 C 16.733 31.552 17.181 32 17.733 32 L 22.267 32 C 22.819 32 23.267 31.552 23.267 31 L 23.267 31 C 23.267 30.534 22.947 30.142 22.516 30.031 Z  M 31.782 30.031 L 31.782 14.969 C 32.214 14.858 32.533 14.466 32.533 14 L 32.533 14 C 32.533 13.448 32.085 13 31.533 13 L 27 13 C 26.448 13 26 13.448 26 14 L 26 14 C 26 14.466 26.319 14.858 26.751 14.969 L 26.751 30.031 C 26.319 30.142 26 30.534 26 31 L 26 31 C 26 31.552 26.448 32 27 32 L 31.533 32 C 32.085 32 32.533 31.552 32.533 31 L 32.533 31 C 32.533 30.534 32.214 30.142 31.782 30.031 Z  M 13.249 30.031 L 13.249 14.969 C 13.681 14.858 14 14.466 14 14 L 14 14 C 14 13.448 13.552 13 13 13 L 8.467 13 C 7.915 13 7.467 13.448 7.467 14 L 7.467 14 C 7.467 14.466 7.786 14.858 8.218 14.969 L 8.218 30.031 C 7.786 30.142 7.467 30.534 7.467 31 L 7.467 31 C 7.467 31.552 7.915 32 8.467 32 L 13 32 C 13.552 32 14 31.552 14 31 L 14 31 C 14 30.534 13.681 30.142 13.249 30.031 Z  M 6.578 33 L 33.422 33 C 33.741 33 34 33.259 34 33.578 L 34 34.422 C 34 34.741 33.741 35 33.422 35 L 6.578 35 C 6.259 35 6 34.741 6 34.422 L 6 33.578 C 6 33.259 6.259 33 6.578 33 Z  M 32.01 11.961 L 20 11.979 L 7.99 11.998 C 7.444 11.999 7.377 11.766 7.841 11.478 L 13.45 8 L 19.058 4.522 C 19.523 4.234 20.279 4.23 20.746 4.514 L 26.45 7.979 L 32.154 11.445 C 32.621 11.729 32.556 11.96 32.01 11.961 Z "
            fill-rule="evenodd" fill="url(#_lgradient_12)" mask="url(#_mask_PY7APf368tCmRpytQYC9IEVBaWQd8Old)"
            vector-effect="non-scaling-stroke" stroke-width="0.4" stroke="rgb(0,0,0)" stroke-linejoin="miter"
            stroke-linecap="square" stroke-miterlimit="3"/>
    </g>
</svg>
