<?xml version="1.0" encoding="UTF-8" standalone="no"?><!-- Generator: Gravit.io -->
<svg xmlns="http://www.w3.org/2000/svg" xmlns:xlink="http://www.w3.org/1999/xlink" style="isolation:isolate"
     viewBox="0 0 40 40" width="40pt" height="40pt">
    <defs>
        <clipPath id="_clipPath_KLlJhw0EHSfANP6WTibxFEHLRvsFBwMv">
            <rect width="40" height="40"/>
        </clipPath>
    </defs>
    <g clip-path="url(#_clipPath_KLlJhw0EHSfANP6WTibxFEHLRvsFBwMv)">
        <path
            d=" M 29.038 33.914 C 29.925 33.914 30.58 33.22 30.58 32.372 C 30.58 31.563 29.963 30.908 29.192 30.831 C 25.762 30.445 21.176 30.175 18.4 30.175 C 16.897 30.175 15.664 30.214 14.777 30.368 C 17.129 27.516 20.019 24.124 22.679 21.31 C 22.949 21.041 23.103 20.655 23.103 20.231 C 23.103 19.884 22.987 19.537 22.794 19.306 C 20.443 15.799 17.475 12.214 14.816 9.555 C 17.437 9.324 20.328 9.169 23.141 9.169 C 26.456 9.169 28.267 9.362 28.576 9.362 C 29.462 9.362 30.117 8.707 30.117 7.82 C 30.117 7.011 29.501 6.356 28.691 6.279 C 26.957 6.163 25.068 6.086 23.141 6.086 C 19.056 6.086 14.777 6.356 11.039 6.895 C 10.306 7.011 9.728 7.628 9.728 8.399 C 9.728 8.9 9.96 9.324 10.306 9.593 C 13.197 12.137 16.705 16.146 19.518 20.077 C 16.165 23.662 12.465 27.978 9.805 31.216 C 9.574 31.524 9.42 31.871 9.42 32.257 C 9.42 33.105 10.114 33.798 10.962 33.798 C 11.309 33.798 13.004 33.259 18.4 33.259 C 23.103 33.259 28.576 33.914 29.038 33.914 Z "
            fill="rgb(230,230,230)"/>
    </g>
</svg>
