<?xml version="1.0" encoding="UTF-8" standalone="no"?><!-- Generator: Gravit.io -->
<svg xmlns="http://www.w3.org/2000/svg" xmlns:xlink="http://www.w3.org/1999/xlink" style="isolation:isolate"
     viewBox="0 0 40 40" width="40pt" height="40pt">
    <defs>
        <clipPath id="_clipPath_hGGxp2U3bAmFxltXQG3lhkQdVMYB2IEL">
            <rect width="40" height="40"/>
        </clipPath>
    </defs>
    <g clip-path="url(#_clipPath_hGGxp2U3bAmFxltXQG3lhkQdVMYB2IEL)">
        <defs>
            <linearGradient id="_lgradient_7" x1="0.462704613095238" y1="-0.050083705357142905"
                            x2="-0.08612351190476197" y2="1.453766741071429">
                <stop offset="0%" style="stop-color:#FDE68A"/>
                <stop offset="100%" style="stop-color:#000000"/>
            </linearGradient>
        </defs>
        <path
            d="M 11.6 4 L 28.4 4 C 30.387 4 32 5.613 32 7.6 L 32 32.4 C 32 34.387 30.387 36 28.4 36 L 11.6 36 C 9.613 36 8 34.387 8 32.4 L 8 7.6 C 8 5.613 9.613 4 11.6 4 Z"
            style="stroke:none;fill:url(#_lgradient_7);stroke-miterlimit:10;"/>
        <path
            d="M 11.6 4 L 28.4 4 C 30.387 4 32 5.613 32 7.6 L 32 32.4 C 32 34.387 30.387 36 28.4 36 L 11.6 36 C 9.613 36 8 34.387 8 32.4 L 8 7.6 C 8 5.613 9.613 4 11.6 4 Z"
            style="fill:none;stroke:#000000;stroke-width:2;stroke-linecap:square;stroke-miterlimit:2;"/>
    </g>
</svg>
